<?xml version="1.0" encoding="UTF-8"?>
<svg version="1.1" xmlns="http://www.w3.org/2000/svg" width="1057" height="720">
<path d="M0,0 L3,0 L3,1 L4,1 L4,2 L5,2 L5,3 L6,3 L6,4 L7,4 L7,3 L10,3 L10,4 L13,4 L13,5 L16,5 L16,6 L18,6 L18,7 L20,7 L20,8 L21,8 L21,9 L23,9 L23,10 L25,10 L25,11 L26,11 L26,12 L27,12 L27,13 L28,13 L28,15 L29,15 L29,14 L30,14 L30,15 L32,15 L32,16 L33,16 L33,17 L34,17 L34,18 L40,18 L40,19 L48,19 L48,20 L54,20 L54,21 L60,21 L60,20 L63,20 L63,19 L66,19 L66,18 L69,18 L69,17 L71,17 L71,16 L72,16 L72,15 L74,15 L74,14 L83,14 L83,15 L84,15 L84,16 L86,16 L86,17 L87,17 L87,18 L89,18 L89,19 L91,19 L91,20 L93,20 L93,21 L107,21 L107,22 L111,22 L111,23 L113,23 L113,24 L119,24 L119,25 L121,25 L121,26 L123,26 L123,27 L124,27 L124,29 L126,29 L126,30 L128,30 L128,31 L129,31 L129,32 L131,32 L131,33 L132,33 L132,34 L133,34 L133,35 L136,35 L136,36 L141,36 L141,37 L142,37 L142,38 L144,38 L144,39 L150,39 L150,40 L156,40 L156,41 L165,41 L165,43 L167,43 L167,45 L169,45 L169,46 L170,46 L170,47 L171,47 L171,52 L172,52 L172,53 L173,53 L173,54 L174,54 L174,59 L173,59 L173,63 L174,63 L174,68 L175,68 L175,71 L176,71 L176,74 L177,74 L177,76 L178,76 L178,79 L179,79 L179,82 L180,82 L180,83 L181,83 L181,84 L182,84 L182,85 L183,85 L183,86 L184,86 L184,88 L185,88 L185,89 L186,89 L186,90 L187,90 L187,92 L188,92 L188,93 L189,93 L189,94 L191,94 L191,95 L193,95 L193,96 L194,96 L194,97 L196,97 L196,98 L198,98 L198,99 L200,99 L200,100 L202,100 L202,101 L209,101 L209,102 L212,102 L212,103 L216,103 L216,104 L239,104 L239,105 L245,105 L245,106 L247,106 L247,107 L249,107 L249,108 L252,108 L252,109 L256,109 L256,110 L264,110 L264,112 L265,112 L265,113 L267,113 L267,114 L269,114 L269,115 L274,115 L274,116 L277,116 L277,117 L280,117 L280,118 L282,118 L282,119 L285,119 L285,120 L286,120 L286,122 L287,122 L287,123 L292,123 L292,124 L294,124 L294,125 L296,125 L296,126 L298,126 L298,127 L301,127 L301,128 L302,128 L302,129 L303,129 L303,131 L304,131 L304,132 L305,132 L305,133 L306,133 L306,134 L307,134 L307,135 L309,135 L309,136 L310,136 L310,137 L312,137 L312,138 L313,138 L313,139 L315,139 L315,140 L316,140 L316,141 L317,141 L317,142 L318,142 L318,144 L320,144 L320,145 L321,145 L321,146 L322,146 L322,147 L326,147 L326,148 L328,148 L328,149 L329,149 L329,150 L331,150 L331,151 L333,151 L333,152 L335,152 L335,153 L338,153 L338,154 L342,154 L342,153 L345,153 L345,152 L348,152 L348,151 L351,151 L351,150 L353,150 L353,149 L354,149 L354,148 L356,148 L356,147 L357,147 L357,146 L361,146 L361,145 L362,145 L362,144 L364,144 L364,143 L365,143 L365,142 L367,142 L367,141 L368,141 L368,140 L369,140 L369,139 L370,139 L370,138 L371,138 L371,137 L372,137 L372,136 L373,136 L373,134 L374,134 L374,133 L375,133 L375,132 L376,132 L376,129 L377,129 L377,128 L378,128 L378,127 L379,127 L379,126 L380,126 L380,124 L381,124 L381,122 L382,122 L382,119 L383,119 L383,117 L384,117 L384,115 L385,115 L385,106 L384,106 L384,102 L383,102 L383,100 L382,100 L382,99 L381,99 L381,97 L379,97 L379,95 L378,95 L378,91 L377,91 L377,88 L376,88 L376,81 L375,81 L375,66 L376,66 L376,65 L377,65 L377,63 L378,63 L378,60 L379,60 L379,58 L380,58 L380,56 L381,56 L381,55 L382,55 L382,54 L383,54 L383,53 L384,53 L384,52 L385,52 L385,51 L386,51 L386,50 L387,50 L387,49 L388,49 L388,48 L389,48 L389,47 L390,47 L390,45 L391,45 L391,43 L392,43 L392,42 L393,42 L393,41 L396,41 L396,40 L397,40 L397,39 L398,39 L398,38 L399,38 L399,37 L400,37 L400,36 L401,36 L401,35 L403,35 L403,34 L405,34 L405,33 L407,33 L407,32 L409,32 L409,31 L411,31 L411,30 L412,30 L412,29 L414,29 L414,28 L416,28 L416,27 L418,27 L418,26 L419,26 L419,25 L421,25 L421,24 L423,24 L423,23 L425,23 L425,22 L441,22 L441,21 L442,21 L442,20 L443,20 L443,19 L445,19 L445,18 L446,18 L446,17 L447,17 L447,16 L448,16 L448,15 L450,15 L450,14 L451,14 L451,13 L458,13 L458,14 L471,14 L471,15 L472,15 L472,13 L477,13 L477,15 L479,15 L479,16 L485,16 L485,17 L487,17 L487,18 L489,18 L489,19 L490,19 L490,20 L491,20 L491,21 L497,21 L497,22 L500,22 L500,23 L502,23 L502,24 L505,24 L505,25 L507,25 L507,26 L510,26 L510,27 L514,27 L514,28 L516,28 L516,29 L519,29 L519,30 L520,30 L520,32 L519,32 L519,37 L521,37 L521,38 L522,38 L522,39 L521,39 L521,40 L520,40 L520,45 L519,45 L519,46 L522,46 L522,47 L523,47 L523,49 L524,49 L524,51 L525,51 L525,52 L531,52 L531,53 L546,53 L546,54 L549,54 L549,55 L552,55 L552,56 L554,56 L554,57 L557,57 L557,58 L558,58 L558,60 L559,60 L559,61 L561,61 L561,62 L562,62 L562,63 L583,63 L583,62 L589,62 L589,61 L592,61 L592,62 L593,62 L593,63 L598,63 L598,64 L603,64 L603,65 L604,65 L604,67 L605,67 L605,73 L606,73 L606,75 L607,75 L607,76 L608,76 L608,78 L609,78 L609,79 L610,79 L610,81 L611,81 L611,83 L609,83 L609,84 L608,84 L608,85 L607,85 L607,86 L606,86 L606,87 L605,87 L605,91 L604,91 L604,92 L603,92 L603,93 L602,93 L602,94 L600,94 L600,95 L599,95 L599,96 L597,96 L597,111 L598,111 L598,115 L599,115 L599,117 L600,117 L600,118 L601,118 L601,122 L602,122 L602,124 L603,124 L603,131 L602,131 L602,134 L601,134 L601,137 L600,137 L600,140 L599,140 L599,144 L598,144 L598,146 L597,146 L597,147 L596,147 L596,149 L595,149 L595,150 L594,150 L594,151 L593,151 L593,153 L592,153 L592,155 L591,155 L591,158 L590,158 L590,159 L589,159 L589,160 L590,160 L590,161 L591,161 L591,163 L592,163 L592,165 L593,165 L593,168 L594,168 L594,171 L595,171 L595,173 L596,173 L596,176 L595,176 L595,179 L594,179 L594,180 L595,180 L595,182 L596,182 L596,183 L597,183 L597,185 L598,185 L598,190 L597,190 L597,194 L598,194 L598,196 L599,196 L599,198 L600,198 L600,201 L601,201 L601,203 L602,203 L602,208 L603,208 L603,654 L602,654 L602,663 L559,663 L559,685 L558,685 L558,686 L556,686 L556,685 L554,685 L554,684 L552,684 L552,683 L549,683 L549,682 L547,682 L547,681 L545,681 L545,680 L544,680 L544,679 L543,679 L543,678 L541,678 L541,677 L540,677 L540,676 L537,676 L537,675 L535,675 L535,674 L533,674 L533,673 L531,673 L531,672 L529,672 L529,671 L527,671 L527,670 L525,670 L525,669 L523,669 L523,668 L521,668 L521,667 L519,667 L519,666 L518,666 L518,665 L516,665 L516,664 L514,664 L514,663 L512,663 L512,662 L510,662 L510,661 L508,661 L508,660 L506,660 L506,659 L504,659 L504,658 L503,658 L503,657 L501,657 L501,656 L499,656 L499,655 L497,655 L497,654 L495,654 L495,653 L493,653 L493,652 L491,652 L491,651 L489,651 L489,650 L487,650 L487,649 L485,649 L485,648 L484,648 L484,647 L482,647 L482,646 L480,646 L480,645 L479,645 L479,644 L477,644 L477,643 L475,643 L475,642 L473,642 L473,641 L470,641 L470,640 L468,640 L468,639 L466,639 L466,638 L463,638 L463,637 L462,637 L462,636 L460,636 L460,635 L459,635 L459,634 L458,634 L458,633 L456,633 L456,632 L454,632 L454,631 L452,631 L452,630 L449,630 L449,629 L447,629 L447,628 L445,628 L445,627 L444,627 L444,626 L442,626 L442,625 L441,625 L441,624 L439,624 L439,623 L437,623 L437,622 L435,622 L435,621 L432,621 L432,620 L430,620 L430,619 L428,619 L428,618 L426,618 L426,617 L424,617 L424,616 L423,616 L423,615 L421,615 L421,614 L420,614 L420,613 L418,613 L418,612 L416,612 L416,611 L413,611 L413,610 L411,610 L411,609 L409,609 L409,608 L407,608 L407,607 L406,607 L406,606 L405,606 L405,605 L403,605 L403,604 L401,604 L401,603 L399,603 L399,602 L396,602 L396,601 L394,601 L394,600 L392,600 L392,599 L390,599 L390,598 L388,598 L388,597 L386,597 L386,596 L385,596 L385,595 L383,595 L383,594 L382,594 L382,593 L381,593 L381,592 L378,592 L378,591 L376,591 L376,590 L374,590 L374,589 L372,589 L372,588 L370,588 L370,587 L368,587 L368,586 L367,586 L367,585 L365,585 L365,584 L364,584 L364,583 L362,583 L362,582 L359,582 L359,581 L357,581 L357,580 L355,580 L355,579 L353,579 L353,578 L351,578 L351,577 L349,577 L349,576 L347,576 L347,575 L345,575 L345,574 L343,574 L343,573 L342,573 L342,572 L340,572 L340,571 L338,571 L338,570 L336,570 L336,569 L334,569 L334,568 L332,568 L332,567 L330,567 L330,566 L329,566 L329,565 L327,565 L327,564 L325,564 L325,563 L323,563 L323,562 L321,562 L321,561 L319,561 L319,560 L318,560 L318,559 L315,559 L315,558 L313,558 L313,557 L311,557 L311,556 L308,556 L308,555 L307,555 L307,554 L305,554 L305,553 L304,553 L304,552 L303,552 L303,551 L301,551 L301,550 L299,550 L299,549 L297,549 L297,548 L295,548 L295,547 L293,547 L293,546 L291,546 L291,545 L289,545 L289,544 L288,544 L288,543 L286,543 L286,542 L284,542 L284,541 L282,541 L282,540 L280,540 L280,539 L278,539 L278,538 L276,538 L276,537 L274,537 L274,536 L273,536 L273,535 L271,535 L271,534 L269,534 L269,533 L267,533 L267,532 L265,532 L265,531 L263,531 L263,530 L261,530 L261,529 L259,529 L259,528 L258,528 L258,527 L256,527 L256,526 L254,526 L254,525 L253,525 L253,524 L251,524 L251,523 L249,523 L249,522 L247,522 L247,521 L245,521 L245,520 L242,520 L242,519 L240,519 L240,518 L237,518 L237,517 L236,517 L236,516 L234,516 L234,515 L233,515 L233,514 L232,514 L232,513 L230,513 L230,512 L228,512 L228,511 L226,511 L226,510 L223,510 L223,509 L221,509 L221,508 L219,508 L219,507 L218,507 L218,506 L216,506 L216,505 L215,505 L215,504 L213,504 L213,503 L211,503 L211,502 L209,502 L209,501 L207,501 L207,500 L205,500 L205,499 L203,499 L203,498 L201,498 L201,497 L199,497 L199,498 L197,498 L197,499 L195,499 L195,500 L193,500 L193,501 L191,501 L191,502 L189,502 L189,503 L187,503 L187,504 L185,504 L185,505 L183,505 L183,506 L181,506 L181,507 L179,507 L179,508 L177,508 L177,509 L175,509 L175,510 L173,510 L173,511 L171,511 L171,512 L169,512 L169,513 L167,513 L167,514 L165,514 L165,515 L163,515 L163,516 L161,516 L161,517 L159,517 L159,518 L156,518 L156,519 L154,519 L154,520 L152,520 L152,521 L150,521 L150,522 L148,522 L148,523 L146,523 L146,524 L145,524 L145,525 L143,525 L143,526 L142,526 L142,527 L140,527 L140,528 L138,528 L138,529 L136,529 L136,530 L134,530 L134,531 L132,531 L132,532 L130,532 L130,533 L128,533 L128,534 L126,534 L126,535 L124,535 L124,536 L119,536 L119,535 L117,535 L117,534 L116,534 L116,533 L115,533 L115,532 L114,532 L114,531 L113,531 L113,530 L112,530 L112,529 L111,529 L111,528 L110,528 L110,527 L109,527 L109,526 L108,526 L108,525 L107,525 L107,524 L106,524 L106,523 L105,523 L105,522 L103,522 L103,521 L102,521 L102,520 L101,520 L101,519 L100,519 L100,518 L99,518 L99,517 L98,517 L98,516 L97,516 L97,515 L96,515 L96,514 L95,514 L95,513 L94,513 L94,512 L93,512 L93,511 L91,511 L91,510 L88,510 L88,509 L85,509 L85,508 L81,508 L81,507 L74,507 L74,506 L71,506 L71,505 L68,505 L68,504 L65,504 L65,503 L59,503 L59,502 L55,502 L55,501 L53,501 L53,500 L50,500 L50,499 L42,499 L42,498 L38,498 L38,497 L35,497 L35,496 L29,496 L29,495 L26,495 L26,494 L23,494 L23,493 L20,493 L20,491 L19,491 L19,489 L18,489 L18,488 L17,488 L17,486 L16,486 L16,483 L15,483 L15,481 L14,481 L14,479 L13,479 L13,477 L12,477 L12,475 L11,475 L11,473 L10,473 L10,471 L9,471 L9,469 L8,469 L8,467 L7,467 L7,465 L6,465 L6,463 L5,463 L5,460 L4,460 L4,458 L3,458 L3,456 L2,456 L2,455 L0,455 L0,454 L-1,454 L-1,453 L-4,453 L-4,452 L-8,452 L-8,451 L-12,451 L-12,450 L-16,450 L-16,449 L-19,449 L-19,448 L-22,448 L-22,447 L-24,447 L-24,446 L-27,446 L-27,445 L-31,445 L-31,444 L-34,444 L-34,443 L-36,443 L-36,442 L-37,442 L-37,443 L-39,443 L-39,444 L-41,444 L-41,445 L-45,445 L-45,446 L-46,446 L-46,447 L-49,447 L-49,446 L-50,446 L-50,445 L-51,445 L-51,444 L-53,444 L-53,443 L-55,443 L-55,442 L-56,442 L-56,440 L-57,440 L-57,439 L-58,439 L-58,433 L-59,433 L-59,432 L-61,432 L-61,431 L-62,431 L-62,430 L-64,430 L-64,429 L-65,429 L-65,428 L-66,428 L-66,427 L-67,427 L-67,403 L-68,403 L-68,401 L-69,401 L-69,400 L-70,400 L-70,398 L-71,398 L-71,397 L-72,397 L-72,396 L-73,396 L-73,394 L-74,394 L-74,393 L-75,393 L-75,391 L-76,391 L-76,390 L-77,390 L-77,388 L-78,388 L-78,387 L-79,387 L-79,385 L-80,385 L-80,384 L-81,384 L-81,383 L-82,383 L-82,381 L-83,381 L-83,380 L-84,380 L-84,379 L-85,379 L-85,377 L-86,377 L-86,376 L-87,376 L-87,375 L-88,375 L-88,373 L-89,373 L-89,372 L-90,372 L-90,370 L-91,370 L-91,369 L-92,369 L-92,368 L-93,368 L-93,366 L-94,366 L-94,365 L-95,365 L-95,358 L-93,358 L-93,357 L-92,357 L-92,355 L-91,355 L-91,352 L-90,352 L-90,351 L-88,351 L-88,350 L-86,350 L-86,349 L-84,349 L-84,348 L-82,348 L-82,347 L-79,347 L-79,346 L-77,346 L-77,345 L-75,345 L-75,344 L-74,344 L-74,342 L-73,342 L-73,339 L-72,339 L-72,336 L-73,336 L-73,331 L-72,331 L-72,328 L-73,328 L-73,327 L-74,327 L-74,326 L-75,326 L-75,325 L-76,325 L-76,316 L-77,316 L-77,312 L-78,312 L-78,309 L-79,309 L-79,300 L-78,300 L-78,297 L-77,297 L-77,296 L-76,296 L-76,293 L-77,293 L-77,290 L-74,290 L-74,289 L-73,289 L-73,287 L-72,287 L-72,283 L-71,283 L-71,279 L-70,279 L-70,276 L-71,276 L-71,273 L-72,273 L-72,271 L-73,271 L-73,268 L-74,268 L-74,266 L-75,266 L-75,263 L-76,263 L-76,260 L-77,260 L-77,258 L-78,258 L-78,252 L-77,252 L-77,246 L-76,246 L-76,239 L-75,239 L-75,232 L-74,232 L-74,219 L-75,219 L-75,213 L-76,213 L-76,210 L-77,210 L-77,207 L-78,207 L-78,204 L-79,204 L-79,200 L-80,200 L-80,195 L-81,195 L-81,190 L-82,190 L-82,187 L-83,187 L-83,185 L-84,185 L-84,183 L-85,183 L-85,181 L-86,181 L-86,179 L-87,179 L-87,178 L-88,178 L-88,176 L-89,176 L-89,175 L-90,175 L-90,174 L-91,174 L-91,173 L-92,173 L-92,172 L-93,172 L-93,170 L-94,170 L-94,169 L-95,169 L-95,167 L-96,167 L-96,166 L-97,166 L-97,165 L-98,165 L-98,164 L-99,164 L-99,163 L-100,163 L-100,162 L-99,162 L-99,161 L-98,161 L-98,160 L-96,160 L-96,159 L-94,159 L-94,158 L-92,158 L-92,157 L-90,157 L-90,156 L-89,156 L-89,155 L-87,155 L-87,154 L-85,154 L-85,153 L-83,153 L-83,152 L-82,152 L-82,151 L-80,151 L-80,150 L-73,150 L-73,149 L-72,149 L-72,147 L-71,147 L-71,146 L-70,146 L-70,144 L-69,144 L-69,143 L-68,143 L-68,141 L-67,141 L-67,140 L-66,140 L-66,138 L-65,138 L-65,137 L-64,137 L-64,135 L-63,135 L-63,134 L-62,134 L-62,133 L-61,133 L-61,132 L-60,132 L-60,131 L-59,131 L-59,129 L-58,129 L-58,127 L-57,127 L-57,124 L-56,124 L-56,123 L-55,123 L-55,119 L-56,119 L-56,113 L-57,113 L-57,110 L-58,110 L-58,106 L-59,106 L-59,103 L-60,103 L-60,100 L-61,100 L-61,98 L-62,98 L-62,96 L-63,96 L-63,90 L-62,90 L-62,89 L-61,89 L-61,88 L-60,88 L-60,86 L-59,86 L-59,85 L-58,85 L-58,84 L-57,84 L-57,82 L-56,82 L-56,81 L-55,81 L-55,80 L-54,80 L-54,78 L-46,78 L-46,77 L-45,77 L-45,76 L-44,76 L-44,74 L-43,74 L-43,73 L-42,73 L-42,72 L-41,72 L-41,66 L-40,66 L-40,64 L-35,64 L-35,63 L-32,63 L-32,61 L-31,61 L-31,59 L-30,59 L-30,57 L-29,57 L-29,56 L-28,56 L-28,55 L-26,55 L-26,54 L-24,54 L-24,53 L-21,53 L-21,52 L-19,52 L-19,51 L-17,51 L-17,50 L-15,50 L-15,49 L-13,49 L-13,48 L-10,48 L-10,47 L-8,47 L-8,46 L-6,46 L-6,45 L-4,45 L-4,44 L-2,44 L-2,43 L-1,43 L-1,42 L0,42 L0,41 L1,41 L1,40 L2,40 L2,36 L1,36 L1,35 L0,35 L0,34 L-1,34 L-1,33 L-2,33 L-2,31 L-3,31 L-3,16 L-2,16 L-2,13 L-1,13 L-1,5 L0,5 Z M7,4 L7,5 L8,5 L8,4 Z " fill="#4C90B9" transform="translate(271,15)"/>
<path d="M0,0 L7,0 L7,1 L20,1 L20,2 L21,2 L21,0 L26,0 L26,2 L28,2 L28,3 L34,3 L34,4 L36,4 L36,5 L38,5 L38,6 L39,6 L39,7 L40,7 L40,8 L46,8 L46,9 L49,9 L49,10 L51,10 L51,11 L48,11 L48,10 L45,10 L45,9 L39,9 L39,8 L38,8 L38,7 L36,7 L36,6 L35,6 L35,5 L33,5 L33,4 L26,4 L26,3 L24,3 L24,2 L23,2 L23,3 L18,3 L18,7 L17,7 L17,14 L18,14 L18,17 L19,17 L19,19 L20,19 L20,24 L19,24 L19,26 L18,26 L18,33 L17,33 L17,37 L18,37 L18,46 L19,46 L19,52 L18,52 L18,69 L17,69 L17,84 L16,84 L16,89 L17,89 L17,91 L18,91 L18,92 L19,92 L19,93 L20,93 L20,94 L21,94 L21,95 L22,95 L22,96 L26,96 L26,95 L29,95 L29,96 L31,96 L31,97 L32,97 L32,98 L33,98 L33,99 L31,99 L31,98 L30,98 L30,97 L23,97 L23,98 L12,98 L12,99 L8,99 L8,100 L5,100 L5,101 L2,101 L2,102 L-35,102 L-35,103 L-42,103 L-42,104 L-47,104 L-47,103 L-49,103 L-49,102 L-50,102 L-50,101 L-51,101 L-51,100 L-53,100 L-53,99 L-54,99 L-54,97 L-55,97 L-55,96 L-56,96 L-56,94 L-57,94 L-57,93 L-58,93 L-58,92 L-59,92 L-59,91 L-62,91 L-62,90 L-64,90 L-64,102 L-65,102 L-65,103 L-66,103 L-66,106 L-67,106 L-67,108 L-68,108 L-68,110 L-69,110 L-69,113 L-70,113 L-70,114 L-71,114 L-71,115 L-72,115 L-72,116 L-73,116 L-73,117 L-74,117 L-74,120 L-75,120 L-75,121 L-76,121 L-76,122 L-77,122 L-77,123 L-78,123 L-78,121 L-77,121 L-77,120 L-76,120 L-76,119 L-75,119 L-75,116 L-74,116 L-74,115 L-73,115 L-73,114 L-72,114 L-72,113 L-71,113 L-71,111 L-70,111 L-70,109 L-69,109 L-69,106 L-68,106 L-68,104 L-67,104 L-67,102 L-66,102 L-66,93 L-67,93 L-67,89 L-68,89 L-68,87 L-69,87 L-69,86 L-70,86 L-70,84 L-72,84 L-72,82 L-73,82 L-73,78 L-74,78 L-74,75 L-75,75 L-75,68 L-76,68 L-76,53 L-75,53 L-75,52 L-74,52 L-74,50 L-73,50 L-73,47 L-72,47 L-72,45 L-71,45 L-71,43 L-70,43 L-70,42 L-69,42 L-69,41 L-68,41 L-68,40 L-67,40 L-67,39 L-66,39 L-66,38 L-65,38 L-65,37 L-64,37 L-64,36 L-63,36 L-63,35 L-62,35 L-62,34 L-61,34 L-61,32 L-60,32 L-60,30 L-59,30 L-59,29 L-58,29 L-58,28 L-55,28 L-55,27 L-54,27 L-54,26 L-53,26 L-53,25 L-52,25 L-52,24 L-51,24 L-51,23 L-50,23 L-50,22 L-48,22 L-48,21 L-46,21 L-46,20 L-44,20 L-44,19 L-42,19 L-42,18 L-40,18 L-40,17 L-39,17 L-39,16 L-37,16 L-37,15 L-35,15 L-35,14 L-33,14 L-33,13 L-32,13 L-32,12 L-30,12 L-30,11 L-28,11 L-28,10 L-26,10 L-26,9 L-10,9 L-10,8 L-9,8 L-9,7 L-8,7 L-8,6 L-6,6 L-6,5 L-5,5 L-5,4 L-4,4 L-4,3 L-3,3 L-3,2 L-1,2 L-1,1 L0,1 Z " fill="#4B8CB4" transform="translate(722,28)"/>
<path d="M0,0 L16,0 L16,1 L17,1 L17,2 L18,2 L18,4 L19,4 L19,7 L18,7 L18,8 L17,8 L17,9 L16,9 L16,10 L15,10 L15,11 L14,11 L14,13 L13,13 L13,18 L14,18 L14,22 L15,22 L15,24 L16,24 L16,28 L18,28 L18,30 L19,30 L19,32 L20,32 L20,34 L21,34 L21,36 L22,36 L22,37 L23,37 L23,38 L25,38 L25,39 L26,39 L26,40 L27,40 L27,41 L28,41 L28,59 L27,59 L27,61 L26,61 L26,70 L27,70 L27,74 L28,74 L28,76 L29,76 L29,77 L30,77 L30,86 L31,86 L31,88 L30,88 L30,89 L14,89 L14,80 L13,80 L13,77 L12,77 L12,75 L11,75 L11,73 L10,73 L10,69 L9,69 L9,63 L8,63 L8,61 L7,61 L7,60 L5,60 L5,61 L-13,61 L-13,62 L-19,62 L-19,61 L-21,61 L-21,60 L-22,60 L-22,59 L-23,59 L-23,55 L-24,55 L-24,53 L-25,53 L-25,51 L-26,51 L-26,49 L-27,49 L-27,47 L-28,47 L-28,45 L-29,45 L-29,43 L-30,43 L-30,40 L-31,40 L-31,38 L-32,38 L-32,34 L-31,34 L-31,32 L-30,32 L-30,30 L-29,30 L-29,28 L-28,28 L-28,27 L-27,27 L-27,26 L-26,26 L-26,24 L-25,24 L-25,23 L-24,23 L-24,22 L-23,22 L-23,21 L-22,21 L-22,20 L-21,20 L-21,18 L-20,18 L-20,15 L-19,15 L-19,10 L-16,10 L-16,9 L-14,9 L-14,8 L-12,8 L-12,7 L-10,7 L-10,6 L-9,6 L-9,5 L-7,5 L-7,3 L-5,3 L-5,2 L-2,2 L-2,1 L0,1 Z " fill="#4C90BA" transform="translate(696,39)"/>
<path d="M0,0 L3,0 L3,1 L4,1 L4,2 L5,2 L5,3 L6,3 L6,4 L7,4 L7,3 L10,3 L10,4 L13,4 L13,5 L16,5 L16,6 L18,6 L18,7 L20,7 L20,8 L21,8 L21,9 L23,9 L23,10 L25,10 L25,11 L26,11 L26,12 L27,12 L27,13 L28,13 L28,15 L29,15 L29,14 L30,14 L30,15 L32,15 L32,16 L33,16 L33,17 L34,17 L34,18 L40,18 L40,19 L48,19 L48,20 L54,20 L54,21 L60,21 L60,20 L63,20 L63,19 L66,19 L66,18 L69,18 L69,17 L71,17 L71,16 L72,16 L72,15 L74,15 L74,14 L83,14 L83,15 L84,15 L84,16 L86,16 L86,17 L87,17 L87,18 L89,18 L89,19 L91,19 L91,20 L93,20 L93,21 L107,21 L107,22 L111,22 L111,23 L113,23 L113,24 L119,24 L119,25 L121,25 L121,26 L123,26 L123,27 L124,27 L124,29 L126,29 L126,30 L128,30 L128,31 L129,31 L129,32 L131,32 L131,33 L132,33 L132,34 L133,34 L133,35 L136,35 L136,36 L141,36 L141,37 L142,37 L142,38 L144,38 L144,39 L150,39 L150,40 L142,40 L142,39 L141,39 L141,38 L140,38 L140,37 L132,37 L132,36 L131,36 L131,35 L130,35 L130,34 L129,34 L129,33 L128,33 L128,32 L126,32 L126,31 L124,31 L124,30 L123,30 L123,29 L122,29 L122,28 L121,28 L121,27 L120,27 L120,26 L114,26 L114,25 L111,25 L111,24 L108,24 L108,23 L105,23 L105,22 L91,22 L91,21 L89,21 L89,20 L88,20 L88,19 L86,19 L86,18 L84,18 L84,17 L83,17 L83,16 L73,16 L73,24 L72,24 L72,26 L73,26 L73,27 L74,27 L74,28 L75,28 L75,29 L76,29 L76,37 L77,37 L77,45 L76,45 L76,44 L75,44 L75,35 L74,35 L74,29 L73,29 L73,28 L72,28 L72,27 L69,27 L69,28 L67,28 L67,29 L66,29 L66,30 L65,30 L65,32 L64,32 L64,33 L63,33 L63,36 L62,36 L62,39 L61,39 L61,42 L60,42 L60,49 L64,49 L64,50 L60,50 L60,51 L57,51 L57,52 L50,52 L50,51 L44,51 L44,50 L42,50 L42,49 L29,49 L29,48 L17,48 L17,60 L16,60 L16,69 L17,69 L17,77 L16,77 L16,90 L17,90 L17,94 L16,94 L16,102 L17,102 L17,105 L18,105 L18,108 L19,108 L19,109 L20,109 L20,111 L21,111 L21,112 L22,112 L22,114 L21,114 L21,116 L20,116 L20,118 L19,118 L19,120 L18,120 L18,121 L17,121 L17,119 L18,119 L18,117 L19,117 L19,115 L20,115 L20,112 L19,112 L19,110 L18,110 L18,109 L17,109 L17,107 L16,107 L16,104 L15,104 L15,100 L14,100 L14,97 L15,97 L15,88 L14,88 L14,79 L15,79 L15,67 L14,67 L14,64 L15,64 L15,48 L6,48 L6,47 L5,47 L5,46 L4,46 L4,45 L3,45 L3,44 L-1,44 L-1,45 L-2,45 L-2,46 L-4,46 L-4,47 L-6,47 L-6,48 L-9,48 L-9,49 L-11,49 L-11,50 L-13,50 L-13,51 L-15,51 L-15,52 L-17,52 L-17,53 L-20,53 L-20,54 L-22,54 L-22,55 L-24,55 L-24,56 L-27,56 L-27,57 L-28,57 L-28,58 L-29,58 L-29,61 L-30,61 L-30,63 L-32,63 L-32,61 L-31,61 L-31,59 L-30,59 L-30,57 L-29,57 L-29,56 L-28,56 L-28,55 L-26,55 L-26,54 L-24,54 L-24,53 L-21,53 L-21,52 L-19,52 L-19,51 L-17,51 L-17,50 L-15,50 L-15,49 L-13,49 L-13,48 L-10,48 L-10,47 L-8,47 L-8,46 L-6,46 L-6,45 L-4,45 L-4,44 L-2,44 L-2,43 L-1,43 L-1,42 L0,42 L0,41 L1,41 L1,40 L2,40 L2,36 L1,36 L1,35 L0,35 L0,34 L-1,34 L-1,33 L-2,33 L-2,31 L-3,31 L-3,16 L-2,16 L-2,13 L-1,13 L-1,5 L0,5 Z M7,4 L7,5 L8,5 L8,4 Z " fill="#4987AD" transform="translate(271,15)"/>
<path d="M0,0 L1,0 L1,2 L0,2 L0,4 L-1,4 L-1,9 L-2,9 L-2,12 L-3,12 L-3,22 L-4,22 L-4,46 L-2,46 L-2,47 L1,47 L1,48 L4,48 L4,49 L6,49 L6,50 L10,50 L10,51 L13,51 L13,52 L16,52 L16,53 L26,53 L26,54 L27,54 L27,121 L232,121 L232,120 L251,120 L251,119 L284,119 L284,67 L254,67 L254,66 L284,66 L284,5 L285,5 L285,10 L286,10 L286,456 L285,456 L285,465 L242,465 L242,487 L241,487 L241,488 L239,488 L239,487 L237,487 L237,486 L235,486 L235,485 L232,485 L232,484 L230,484 L230,483 L228,483 L228,482 L227,482 L227,481 L226,481 L226,480 L228,480 L228,481 L231,481 L231,482 L232,482 L232,483 L234,483 L234,484 L236,484 L236,485 L239,485 L239,486 L240,486 L240,463 L283,463 L283,456 L284,456 L284,121 L240,121 L240,122 L27,122 L27,153 L26,153 L26,190 L27,190 L27,375 L28,375 L28,376 L26,376 L26,375 L25,375 L25,374 L23,374 L23,373 L21,373 L21,372 L19,372 L19,371 L17,371 L17,370 L15,370 L15,369 L13,369 L13,368 L12,368 L12,367 L16,367 L16,368 L17,368 L17,369 L19,369 L19,370 L21,370 L21,371 L23,371 L23,372 L25,372 L25,180 L24,180 L24,172 L22,172 L22,171 L21,171 L21,170 L24,170 L24,160 L25,160 L25,54 L15,54 L15,53 L12,53 L12,52 L8,52 L8,51 L5,51 L5,50 L2,50 L2,49 L0,49 L0,48 L-3,48 L-3,47 L-4,47 L-4,48 L-7,48 L-7,47 L-11,47 L-11,46 L-13,46 L-13,45 L-15,45 L-15,44 L-17,44 L-17,43 L-13,43 L-13,44 L-12,44 L-12,45 L-10,45 L-10,46 L-5,46 L-5,18 L-4,18 L-4,11 L-3,11 L-3,7 L-2,7 L-2,3 L-1,3 L-1,1 L0,1 Z " fill="#40718F" transform="translate(588,213)"/>
<path d="M0,0 L2,0 L2,1 L3,1 L3,2 L4,2 L4,3 L5,3 L5,4 L8,4 L8,5 L16,5 L16,6 L17,6 L17,7 L19,7 L19,8 L21,8 L21,9 L22,9 L22,10 L24,10 L24,11 L25,11 L25,12 L26,12 L26,14 L30,14 L30,15 L31,15 L31,16 L32,16 L32,17 L34,17 L34,18 L38,18 L38,19 L46,19 L46,23 L45,23 L45,26 L44,26 L44,28 L43,28 L43,29 L42,29 L42,30 L41,30 L41,31 L39,31 L39,32 L38,32 L38,33 L37,33 L37,34 L36,34 L36,35 L35,35 L35,36 L33,36 L33,37 L32,37 L32,38 L30,38 L30,39 L27,39 L27,40 L26,40 L26,43 L22,43 L22,44 L18,44 L18,45 L6,45 L6,44 L5,44 L5,43 L4,43 L4,42 L3,42 L3,41 L2,41 L2,33 L1,33 L1,32 L0,32 L0,30 L-1,30 L-1,29 L-2,29 L-2,12 L-1,12 L-1,5 L0,5 Z " fill="#4C8FB9" transform="translate(272,17)"/>
<path d="M0,0 L1,0 L1,2 L0,2 L0,4 L-1,4 L-1,9 L-2,9 L-2,12 L-3,12 L-3,22 L-4,22 L-4,46 L-2,46 L-2,47 L1,47 L1,48 L4,48 L4,49 L6,49 L6,50 L10,50 L10,51 L13,51 L13,52 L16,52 L16,53 L26,53 L26,54 L27,54 L27,121 L26,121 L26,122 L27,122 L27,153 L26,153 L26,190 L27,190 L27,375 L28,375 L28,376 L26,376 L26,375 L25,375 L25,374 L23,374 L23,373 L21,373 L21,372 L19,372 L19,371 L17,371 L17,370 L15,370 L15,369 L13,369 L13,368 L12,368 L12,367 L16,367 L16,368 L17,368 L17,369 L19,369 L19,370 L21,370 L21,371 L23,371 L23,372 L25,372 L25,180 L24,180 L24,172 L22,172 L22,171 L21,171 L21,170 L24,170 L24,160 L25,160 L25,54 L15,54 L15,53 L12,53 L12,52 L8,52 L8,51 L5,51 L5,50 L2,50 L2,49 L0,49 L0,48 L-3,48 L-3,47 L-4,47 L-4,48 L-7,48 L-7,47 L-11,47 L-11,46 L-13,46 L-13,45 L-15,45 L-15,44 L-17,44 L-17,43 L-13,43 L-13,44 L-12,44 L-12,45 L-10,45 L-10,46 L-5,46 L-5,18 L-4,18 L-4,11 L-3,11 L-3,7 L-2,7 L-2,3 L-1,3 L-1,1 L0,1 Z " fill="#41718F" transform="translate(588,213)"/>
<path d="M0,0 L1,0 L1,446 L0,446 L0,455 L-43,455 L-43,477 L-44,477 L-44,478 L-46,478 L-46,477 L-48,477 L-48,476 L-50,476 L-50,475 L-53,475 L-53,474 L-55,474 L-55,473 L-57,473 L-57,472 L-58,472 L-58,471 L-59,471 L-59,470 L-57,470 L-57,471 L-54,471 L-54,472 L-53,472 L-53,473 L-51,473 L-51,474 L-49,474 L-49,475 L-46,475 L-46,476 L-45,476 L-45,453 L-2,453 L-2,446 L-1,446 L-1,445 L0,445 Z " fill="#273138" transform="translate(873,223)"/>
<path d="M0,0 L10,0 L10,1 L11,1 L11,2 L13,2 L13,3 L15,3 L15,4 L16,4 L16,5 L18,5 L18,6 L32,6 L32,7 L35,7 L35,8 L36,8 L36,9 L35,9 L35,10 L34,10 L34,11 L33,11 L33,12 L32,12 L32,13 L31,13 L31,15 L30,15 L30,16 L28,16 L28,17 L25,17 L25,18 L22,18 L22,19 L20,19 L20,20 L16,20 L16,21 L15,21 L15,22 L14,22 L14,24 L13,24 L13,28 L12,28 L12,29 L10,29 L10,30 L7,30 L7,32 L8,32 L8,33 L9,33 L9,35 L8,35 L8,34 L7,34 L7,33 L6,33 L6,32 L3,32 L3,33 L-8,33 L-8,32 L2,32 L2,31 L4,31 L4,21 L3,21 L3,13 L2,13 L2,12 L1,12 L1,11 L0,11 L0,10 L-1,10 L-1,8 L0,8 Z " fill="#4C8FB8" transform="translate(344,31)"/>
<path d="M0,0 L3,0 L3,1 L4,1 L4,2 L5,2 L5,3 L6,3 L6,4 L7,4 L7,3 L10,3 L10,4 L13,4 L13,5 L16,5 L16,6 L18,6 L18,7 L20,7 L20,8 L21,8 L21,9 L23,9 L23,10 L25,10 L25,11 L26,11 L26,12 L27,12 L27,13 L28,13 L28,15 L29,15 L29,14 L30,14 L30,15 L32,15 L32,16 L33,16 L33,17 L34,17 L34,18 L40,18 L40,19 L48,19 L48,20 L54,20 L54,21 L60,21 L60,20 L63,20 L63,19 L66,19 L66,18 L69,18 L69,17 L71,17 L71,16 L72,16 L72,15 L74,15 L74,14 L83,14 L83,15 L84,15 L84,16 L86,16 L86,17 L87,17 L87,18 L89,18 L89,19 L91,19 L91,20 L93,20 L93,21 L107,21 L107,22 L111,22 L111,23 L113,23 L113,24 L119,24 L119,25 L121,25 L121,26 L123,26 L123,27 L124,27 L124,29 L126,29 L126,30 L128,30 L128,31 L129,31 L129,32 L131,32 L131,33 L132,33 L132,34 L133,34 L133,35 L136,35 L136,36 L141,36 L141,37 L142,37 L142,38 L144,38 L144,39 L150,39 L150,40 L142,40 L142,39 L141,39 L141,38 L140,38 L140,37 L132,37 L132,36 L131,36 L131,35 L130,35 L130,34 L129,34 L129,33 L128,33 L128,32 L126,32 L126,31 L124,31 L124,30 L123,30 L123,29 L122,29 L122,28 L121,28 L121,27 L120,27 L120,26 L114,26 L114,25 L111,25 L111,24 L108,24 L108,23 L105,23 L105,22 L91,22 L91,21 L89,21 L89,20 L88,20 L88,19 L86,19 L86,18 L84,18 L84,17 L83,17 L83,16 L73,16 L73,17 L72,17 L72,18 L70,18 L70,19 L67,19 L67,20 L64,20 L64,21 L61,21 L61,22 L53,22 L53,21 L39,21 L39,20 L35,20 L35,19 L33,19 L33,18 L32,18 L32,17 L31,17 L31,16 L27,16 L27,14 L26,14 L26,13 L25,13 L25,12 L23,12 L23,11 L22,11 L22,10 L20,10 L20,9 L18,9 L18,8 L17,8 L17,7 L9,7 L9,6 L6,6 L6,5 L5,5 L5,4 L4,4 L4,3 L3,3 L3,2 L1,2 L1,7 L0,7 L0,14 L-1,14 L-1,31 L0,31 L0,32 L1,32 L1,34 L2,34 L2,35 L3,35 L3,43 L4,43 L4,44 L5,44 L5,45 L6,45 L6,46 L7,46 L7,47 L19,47 L19,46 L23,46 L23,45 L27,45 L27,42 L28,42 L28,41 L31,41 L31,40 L33,40 L33,39 L34,39 L34,38 L36,38 L36,39 L35,39 L35,40 L34,40 L34,41 L32,41 L32,42 L30,42 L30,43 L28,43 L28,46 L24,46 L24,47 L31,47 L31,48 L17,48 L17,60 L16,60 L16,69 L17,69 L17,77 L16,77 L16,90 L17,90 L17,94 L16,94 L16,102 L17,102 L17,105 L18,105 L18,108 L19,108 L19,109 L20,109 L20,111 L21,111 L21,112 L22,112 L22,114 L21,114 L21,116 L20,116 L20,118 L19,118 L19,120 L18,120 L18,121 L17,121 L17,119 L18,119 L18,117 L19,117 L19,115 L20,115 L20,112 L19,112 L19,110 L18,110 L18,109 L17,109 L17,107 L16,107 L16,104 L15,104 L15,100 L14,100 L14,97 L15,97 L15,88 L14,88 L14,79 L15,79 L15,67 L14,67 L14,64 L15,64 L15,48 L6,48 L6,47 L5,47 L5,46 L4,46 L4,45 L3,45 L3,44 L-1,44 L-1,45 L-2,45 L-2,46 L-4,46 L-4,47 L-6,47 L-6,48 L-9,48 L-9,49 L-11,49 L-11,50 L-13,50 L-13,51 L-15,51 L-15,52 L-17,52 L-17,53 L-20,53 L-20,54 L-22,54 L-22,55 L-24,55 L-24,56 L-27,56 L-27,57 L-28,57 L-28,58 L-29,58 L-29,61 L-30,61 L-30,63 L-32,63 L-32,61 L-31,61 L-31,59 L-30,59 L-30,57 L-29,57 L-29,56 L-28,56 L-28,55 L-26,55 L-26,54 L-24,54 L-24,53 L-21,53 L-21,52 L-19,52 L-19,51 L-17,51 L-17,50 L-15,50 L-15,49 L-13,49 L-13,48 L-10,48 L-10,47 L-8,47 L-8,46 L-6,46 L-6,45 L-4,45 L-4,44 L-2,44 L-2,43 L-1,43 L-1,42 L0,42 L0,41 L1,41 L1,40 L2,40 L2,36 L1,36 L1,35 L0,35 L0,34 L-1,34 L-1,33 L-2,33 L-2,31 L-3,31 L-3,16 L-2,16 L-2,13 L-1,13 L-1,5 L0,5 Z M7,4 L7,5 L8,5 L8,4 Z " fill="#222A30" transform="translate(271,15)"/>
<path d="M0,0 L1,0 L1,2 L2,2 L2,4 L3,4 L3,6 L4,6 L4,8 L5,8 L5,10 L6,10 L6,12 L7,12 L7,16 L8,16 L8,17 L9,17 L9,18 L11,18 L11,19 L17,19 L17,18 L35,18 L35,17 L37,17 L37,18 L38,18 L38,20 L39,20 L39,26 L40,26 L40,30 L41,30 L41,32 L42,32 L42,34 L43,34 L43,37 L44,37 L44,46 L60,46 L60,45 L61,45 L61,43 L60,43 L60,34 L59,34 L59,33 L58,33 L58,31 L57,31 L57,27 L56,27 L56,18 L57,18 L57,16 L58,16 L58,20 L57,20 L57,25 L58,25 L58,30 L59,30 L59,32 L60,32 L60,33 L61,33 L61,37 L62,37 L62,44 L65,44 L65,43 L70,43 L70,42 L76,42 L76,41 L75,41 L75,40 L74,40 L74,39 L73,39 L73,37 L74,37 L74,38 L75,38 L75,39 L76,39 L76,40 L77,40 L77,41 L78,41 L78,42 L82,42 L82,41 L85,41 L85,42 L87,42 L87,43 L88,43 L88,44 L89,44 L89,45 L87,45 L87,44 L86,44 L86,43 L79,43 L79,44 L68,44 L68,45 L64,45 L64,46 L61,46 L61,47 L58,47 L58,48 L21,48 L21,49 L14,49 L14,50 L9,50 L9,49 L7,49 L7,48 L6,48 L6,47 L5,47 L5,46 L7,46 L7,47 L8,47 L8,48 L10,48 L10,49 L12,49 L12,48 L16,48 L16,47 L24,47 L24,46 L43,46 L43,43 L42,43 L42,35 L41,35 L41,33 L40,33 L40,31 L39,31 L39,27 L38,27 L38,21 L37,21 L37,19 L34,19 L34,20 L16,20 L16,21 L13,21 L13,20 L9,20 L9,19 L8,19 L8,18 L7,18 L7,17 L6,17 L6,14 L5,14 L5,11 L4,11 L4,9 L3,9 L3,7 L2,7 L2,5 L1,5 L1,3 L0,3 Z " fill="#3E6A85" transform="translate(666,82)"/>
<path d="M0,0 L2,0 L2,1 L1,1 L1,2 L0,2 L0,3 L-2,3 L-2,4 L-4,4 L-4,5 L-6,5 L-6,8 L-10,8 L-10,9 L-3,9 L-3,10 L-17,10 L-17,22 L-18,22 L-18,31 L-17,31 L-17,39 L-18,39 L-18,52 L-17,52 L-17,56 L-18,56 L-18,64 L-17,64 L-17,67 L-16,67 L-16,70 L-15,70 L-15,71 L-14,71 L-14,73 L-13,73 L-13,74 L-12,74 L-12,76 L-13,76 L-13,78 L-14,78 L-14,80 L-15,80 L-15,82 L-16,82 L-16,83 L-17,83 L-17,81 L-16,81 L-16,79 L-15,79 L-15,77 L-14,77 L-14,74 L-15,74 L-15,72 L-16,72 L-16,71 L-17,71 L-17,69 L-18,69 L-18,66 L-19,66 L-19,62 L-20,62 L-20,59 L-19,59 L-19,50 L-20,50 L-20,41 L-19,41 L-19,29 L-20,29 L-20,26 L-19,26 L-19,10 L-28,10 L-28,9 L-29,9 L-29,8 L-30,8 L-30,7 L-31,7 L-31,6 L-35,6 L-35,7 L-36,7 L-36,8 L-38,8 L-38,9 L-40,9 L-40,10 L-43,10 L-43,11 L-45,11 L-45,12 L-47,12 L-47,13 L-49,13 L-49,14 L-51,14 L-51,15 L-54,15 L-54,16 L-56,16 L-56,17 L-58,17 L-58,18 L-61,18 L-61,19 L-62,19 L-62,20 L-63,20 L-63,23 L-64,23 L-64,25 L-66,25 L-66,23 L-65,23 L-65,21 L-64,21 L-64,19 L-63,19 L-63,18 L-62,18 L-62,17 L-60,17 L-60,16 L-58,16 L-58,15 L-55,15 L-55,14 L-53,14 L-53,13 L-51,13 L-51,12 L-49,12 L-49,11 L-47,11 L-47,10 L-44,10 L-44,9 L-42,9 L-42,8 L-40,8 L-40,7 L-38,7 L-38,6 L-36,6 L-36,5 L-35,5 L-35,4 L-34,4 L-34,3 L-33,3 L-33,2 L-31,2 L-31,5 L-30,5 L-30,6 L-29,6 L-29,7 L-28,7 L-28,8 L-27,8 L-27,9 L-15,9 L-15,8 L-11,8 L-11,7 L-7,7 L-7,4 L-6,4 L-6,3 L-3,3 L-3,2 L-1,2 L-1,1 L0,1 Z " fill="#36586D" transform="translate(305,53)"/>
<path d="M0,0 L2,0 L2,1 L3,1 L3,2 L4,2 L4,4 L5,4 L5,5 L6,5 L6,7 L7,7 L7,8 L8,8 L8,9 L9,9 L9,10 L10,10 L10,11 L11,11 L11,13 L12,13 L12,14 L13,14 L13,16 L14,16 L14,18 L15,18 L15,20 L16,20 L16,22 L17,22 L17,23 L18,23 L18,28 L19,28 L19,33 L20,33 L20,39 L21,39 L21,42 L22,42 L22,45 L23,45 L23,46 L24,46 L24,50 L25,50 L25,73 L27,73 L27,72 L29,72 L29,71 L31,71 L31,70 L34,70 L34,69 L38,69 L38,70 L41,70 L41,71 L43,71 L43,72 L45,72 L45,73 L47,73 L47,74 L50,74 L50,73 L53,73 L53,72 L56,72 L56,71 L59,71 L59,70 L61,70 L61,69 L62,69 L62,68 L64,68 L64,67 L66,67 L66,66 L67,66 L67,65 L68,65 L68,64 L69,64 L69,63 L73,63 L73,65 L74,65 L74,67 L75,67 L75,70 L76,70 L76,72 L75,72 L75,71 L74,71 L74,69 L73,69 L73,66 L72,66 L72,64 L70,64 L70,65 L69,65 L69,66 L68,66 L68,67 L67,67 L67,68 L65,68 L65,69 L63,69 L63,70 L62,70 L62,71 L60,71 L60,72 L58,72 L58,73 L55,73 L55,74 L52,74 L52,75 L46,75 L46,74 L44,74 L44,73 L42,73 L42,72 L40,72 L40,71 L33,71 L33,72 L30,72 L30,73 L28,73 L28,74 L26,74 L26,75 L24,75 L24,76 L23,76 L23,81 L22,81 L22,75 L23,75 L23,68 L24,68 L24,55 L23,55 L23,49 L22,49 L22,46 L21,46 L21,43 L20,43 L20,40 L19,40 L19,36 L18,36 L18,31 L17,31 L17,26 L16,26 L16,23 L15,23 L15,21 L14,21 L14,19 L13,19 L13,17 L12,17 L12,15 L11,15 L11,14 L10,14 L10,12 L9,12 L9,11 L8,11 L8,10 L7,10 L7,9 L6,9 L6,8 L5,8 L5,6 L4,6 L4,5 L3,5 L3,3 L2,3 L2,2 L1,2 L1,1 L0,1 Z " fill="#304756" transform="translate(173,179)"/>
<path d="M0,0 L3,0 L3,1 L2,1 L2,2 L1,2 L1,4 L0,4 L0,7 L-1,7 L-1,39 L0,39 L0,41 L1,41 L1,43 L2,43 L2,45 L3,45 L3,47 L4,47 L4,50 L5,50 L5,62 L8,62 L8,63 L9,63 L9,65 L10,65 L10,68 L11,68 L11,70 L12,70 L12,72 L13,72 L13,74 L14,74 L14,76 L15,76 L15,78 L16,78 L16,80 L17,80 L17,82 L18,82 L18,84 L19,84 L19,86 L20,86 L20,88 L21,88 L21,91 L22,91 L22,93 L23,93 L23,95 L24,95 L24,97 L25,97 L25,99 L26,99 L26,100 L27,100 L27,101 L29,101 L29,102 L32,102 L32,103 L39,103 L39,104 L41,104 L41,105 L44,105 L44,106 L47,106 L47,107 L43,107 L43,106 L40,106 L40,105 L34,105 L34,104 L31,104 L31,103 L28,103 L28,102 L25,102 L25,100 L24,100 L24,98 L23,98 L23,97 L22,97 L22,95 L21,95 L21,92 L20,92 L20,90 L19,90 L19,88 L18,88 L18,86 L17,86 L17,84 L16,84 L16,82 L15,82 L15,80 L14,80 L14,78 L13,78 L13,76 L12,76 L12,74 L11,74 L11,72 L10,72 L10,69 L9,69 L9,67 L8,67 L8,65 L7,65 L7,64 L5,64 L5,63 L4,63 L4,62 L1,62 L1,61 L-3,61 L-3,60 L-7,60 L-7,59 L1,59 L1,60 L4,60 L4,53 L3,53 L3,48 L2,48 L2,46 L1,46 L1,44 L0,44 L0,42 L-1,42 L-1,40 L-2,40 L-2,6 L-1,6 L-1,3 L0,3 Z " fill="#2D4250" transform="translate(266,406)"/>
<path d="M0,0 L2,0 L2,2 L0,2 L0,3 L-1,3 L-1,4 L-3,4 L-3,5 L-5,5 L-5,6 L-7,6 L-7,7 L-10,7 L-10,12 L-11,12 L-11,15 L-12,15 L-12,17 L-13,17 L-13,18 L-14,18 L-14,19 L-15,19 L-15,20 L-16,20 L-16,21 L-17,21 L-17,23 L-18,23 L-18,24 L-19,24 L-19,25 L-20,25 L-20,23 L-19,23 L-19,22 L-18,22 L-18,20 L-17,20 L-17,19 L-16,19 L-16,18 L-15,18 L-15,17 L-14,17 L-14,16 L-13,16 L-13,14 L-12,14 L-12,10 L-15,10 L-15,11 L-16,11 L-16,12 L-17,12 L-17,13 L-18,13 L-18,14 L-19,14 L-19,15 L-22,15 L-22,16 L-23,16 L-23,17 L-24,17 L-24,20 L-25,20 L-25,21 L-26,21 L-26,22 L-27,22 L-27,23 L-28,23 L-28,24 L-29,24 L-29,25 L-30,25 L-30,26 L-31,26 L-31,27 L-32,27 L-32,28 L-33,28 L-33,29 L-34,29 L-34,30 L-35,30 L-35,33 L-36,33 L-36,35 L-37,35 L-37,37 L-38,37 L-38,42 L-40,42 L-40,53 L-39,53 L-39,54 L-38,54 L-38,63 L-37,63 L-37,65 L-36,65 L-36,69 L-34,69 L-34,71 L-33,71 L-33,72 L-32,72 L-32,75 L-33,75 L-33,73 L-34,73 L-34,72 L-35,72 L-35,70 L-37,70 L-37,68 L-38,68 L-38,64 L-39,64 L-39,61 L-40,61 L-40,54 L-41,54 L-41,39 L-40,39 L-40,38 L-39,38 L-39,36 L-38,36 L-38,33 L-37,33 L-37,31 L-36,31 L-36,29 L-35,29 L-35,28 L-34,28 L-34,27 L-33,27 L-33,26 L-32,26 L-32,25 L-31,25 L-31,24 L-30,24 L-30,23 L-29,23 L-29,22 L-28,22 L-28,21 L-27,21 L-27,20 L-26,20 L-26,18 L-25,18 L-25,16 L-24,16 L-24,15 L-23,15 L-23,14 L-20,14 L-20,13 L-19,13 L-19,12 L-18,12 L-18,11 L-17,11 L-17,10 L-16,10 L-16,9 L-15,9 L-15,8 L-13,8 L-13,7 L-11,7 L-11,6 L-9,6 L-9,5 L-7,5 L-7,4 L-5,4 L-5,3 L-4,3 L-4,2 L-2,2 L-2,1 L0,1 Z " fill="#262F35" transform="translate(687,42)"/>
<path d="M0,0 L1,0 L1,1 L2,1 L2,2 L4,2 L4,3 L6,3 L6,4 L7,4 L7,5 L9,5 L9,6 L11,6 L11,7 L13,7 L13,8 L15,8 L15,9 L22,9 L22,10 L25,10 L25,11 L29,11 L29,12 L52,12 L52,13 L58,13 L58,14 L60,14 L60,15 L62,15 L62,16 L58,16 L58,15 L53,15 L53,14 L48,14 L48,13 L27,13 L27,12 L20,12 L20,24 L21,24 L21,30 L22,30 L22,32 L23,32 L23,35 L24,35 L24,38 L25,38 L25,41 L26,41 L26,50 L27,50 L27,56 L28,56 L28,62 L29,62 L29,64 L30,64 L30,67 L29,67 L29,65 L28,65 L28,63 L27,63 L27,61 L26,61 L26,54 L25,54 L25,45 L24,45 L24,39 L23,39 L23,36 L22,36 L22,34 L21,34 L21,31 L20,31 L20,26 L19,26 L19,11 L15,11 L15,10 L13,10 L13,9 L11,9 L11,8 L10,8 L10,7 L8,7 L8,6 L6,6 L6,5 L4,5 L4,4 L3,4 L3,3 L1,3 L1,2 L0,2 Z " fill="#304959" transform="translate(458,107)"/>
<path d="M0,0 L3,0 L3,1 L4,1 L4,2 L5,2 L5,3 L6,3 L6,4 L7,4 L7,3 L10,3 L10,4 L13,4 L13,5 L16,5 L16,6 L18,6 L18,7 L20,7 L20,8 L21,8 L21,9 L23,9 L23,10 L25,10 L25,11 L26,11 L26,12 L27,12 L27,13 L28,13 L28,15 L29,15 L29,14 L30,14 L30,15 L32,15 L32,16 L33,16 L33,17 L34,17 L34,18 L40,18 L40,19 L42,19 L42,20 L47,20 L47,21 L39,21 L39,20 L35,20 L35,19 L33,19 L33,18 L32,18 L32,17 L31,17 L31,16 L27,16 L27,14 L26,14 L26,13 L25,13 L25,12 L23,12 L23,11 L22,11 L22,10 L20,10 L20,9 L18,9 L18,8 L17,8 L17,7 L9,7 L9,6 L6,6 L6,5 L5,5 L5,4 L4,4 L4,3 L3,3 L3,2 L1,2 L1,7 L0,7 L0,14 L-1,14 L-1,31 L0,31 L0,32 L1,32 L1,34 L2,34 L2,35 L3,35 L3,40 L2,40 L2,36 L1,36 L1,35 L0,35 L0,34 L-1,34 L-1,33 L-2,33 L-2,31 L-3,31 L-3,16 L-2,16 L-2,13 L-1,13 L-1,5 L0,5 Z M7,4 L7,5 L8,5 L8,4 Z " fill="#212122" transform="translate(271,15)"/>
<path d="M0,0 L7,0 L7,1 L20,1 L20,2 L21,2 L21,0 L26,0 L26,2 L28,2 L28,3 L34,3 L34,4 L36,4 L36,5 L38,5 L38,6 L39,6 L39,7 L40,7 L40,8 L46,8 L46,9 L49,9 L49,10 L51,10 L51,11 L48,11 L48,10 L45,10 L45,9 L39,9 L39,8 L38,8 L38,7 L36,7 L36,6 L35,6 L35,5 L33,5 L33,4 L26,4 L26,3 L24,3 L24,2 L23,2 L23,3 L7,3 L7,2 L0,2 L0,3 L-2,3 L-2,4 L-3,4 L-3,5 L-4,5 L-4,6 L-5,6 L-5,7 L-7,7 L-7,8 L-8,8 L-8,9 L-9,9 L-9,11 L-26,11 L-26,12 L-28,12 L-28,13 L-31,13 L-31,14 L-33,14 L-33,13 L-32,13 L-32,12 L-30,12 L-30,11 L-28,11 L-28,10 L-26,10 L-26,9 L-10,9 L-10,8 L-9,8 L-9,7 L-8,7 L-8,6 L-6,6 L-6,5 L-5,5 L-5,4 L-4,4 L-4,3 L-3,3 L-3,2 L-1,2 L-1,1 L0,1 Z " fill="#232C31" transform="translate(722,28)"/>
<path d="M0,0 L1,0 L1,6 L0,6 L0,7 L-1,7 L-1,8 L-2,8 L-2,9 L-3,9 L-3,10 L-2,10 L-2,13 L-3,13 L-3,14 L-4,14 L-4,15 L-5,15 L-5,28 L-4,28 L-4,32 L-3,32 L-3,34 L-2,34 L-2,41 L-1,41 L-1,43 L0,43 L0,44 L1,44 L1,49 L0,49 L0,52 L2,52 L2,56 L1,56 L1,59 L0,59 L0,60 L-1,60 L-1,63 L-3,63 L-3,64 L-6,64 L-6,65 L-8,65 L-8,66 L-10,66 L-10,67 L-12,67 L-12,68 L-14,68 L-14,69 L-16,69 L-16,70 L-17,70 L-17,73 L-19,73 L-19,74 L-20,74 L-20,72 L-19,72 L-19,69 L-18,69 L-18,68 L-16,68 L-16,67 L-14,67 L-14,66 L-12,66 L-12,65 L-10,65 L-10,64 L-7,64 L-7,63 L-5,63 L-5,62 L-3,62 L-3,61 L-2,61 L-2,59 L-1,59 L-1,56 L0,56 L0,53 L-1,53 L-1,48 L0,48 L0,45 L-1,45 L-1,44 L-2,44 L-2,43 L-3,43 L-3,42 L-4,42 L-4,33 L-5,33 L-5,29 L-6,29 L-6,26 L-7,26 L-7,17 L-6,17 L-6,14 L-5,14 L-5,13 L-4,13 L-4,10 L-5,10 L-5,7 L-2,7 L-2,6 L-1,6 L-1,4 L0,4 Z " fill="#2A3842" transform="translate(199,298)"/>
<path d="M0,0 L7,0 L7,1 L11,1 L11,2 L16,2 L16,3 L18,3 L18,4 L22,4 L22,5 L25,5 L25,6 L29,6 L29,7 L34,7 L34,8 L43,8 L43,7 L50,7 L50,6 L59,6 L59,7 L52,7 L52,8 L47,8 L47,9 L41,9 L41,12 L42,12 L42,20 L41,20 L41,23 L42,23 L42,24 L43,24 L43,26 L44,26 L44,27 L45,27 L45,28 L46,28 L46,32 L45,32 L45,29 L44,29 L44,28 L43,28 L43,27 L42,27 L42,25 L41,25 L41,24 L40,24 L40,18 L41,18 L41,15 L40,15 L40,11 L39,11 L39,10 L35,10 L35,9 L31,9 L31,8 L27,8 L27,7 L23,7 L23,6 L20,6 L20,5 L17,5 L17,4 L13,4 L13,3 L10,3 L10,2 L5,2 L5,1 L2,1 L2,2 L-2,2 L-2,3 L-5,3 L-5,4 L-7,4 L-7,5 L-9,5 L-9,4 L-8,4 L-8,3 L-6,3 L-6,2 L-3,2 L-3,1 L0,1 Z " fill="#3D6883" transform="translate(344,320)"/>
<path d="M0,0 L4,0 L4,1 L5,1 L5,2 L7,2 L7,4 L10,4 L10,5 L12,5 L12,6 L14,6 L14,7 L16,7 L16,8 L18,8 L18,9 L20,9 L20,10 L22,10 L22,11 L24,11 L24,12 L26,12 L26,13 L28,13 L28,14 L29,14 L29,15 L31,15 L31,16 L33,16 L33,17 L35,17 L35,18 L37,18 L37,19 L39,19 L39,20 L41,20 L41,21 L43,21 L43,22 L44,22 L44,23 L46,23 L46,24 L48,24 L48,25 L50,25 L50,26 L52,26 L52,27 L54,27 L54,28 L56,28 L56,29 L58,29 L58,30 L60,30 L60,31 L62,31 L62,32 L63,32 L63,33 L64,33 L64,34 L62,34 L62,33 L61,33 L61,32 L58,32 L58,31 L56,31 L56,30 L54,30 L54,29 L52,29 L52,28 L50,28 L50,27 L48,27 L48,26 L46,26 L46,25 L44,25 L44,24 L42,24 L42,23 L40,23 L40,22 L39,22 L39,21 L37,21 L37,20 L35,20 L35,19 L33,19 L33,18 L31,18 L31,17 L29,17 L29,16 L27,16 L27,15 L25,15 L25,14 L24,14 L24,13 L22,13 L22,12 L20,12 L20,11 L18,11 L18,10 L16,10 L16,9 L14,9 L14,8 L12,8 L12,7 L10,7 L10,6 L8,6 L8,5 L6,5 L6,4 L5,4 L5,3 L3,3 L3,2 L1,2 L1,1 L0,1 Z " fill="#2B3C46" transform="translate(750,659)"/>
<path d="M0,0 L1,0 L1,2 L0,2 L0,4 L-1,4 L-1,9 L-2,9 L-2,12 L-3,12 L-3,22 L-4,22 L-4,46 L-2,46 L-2,47 L1,47 L1,48 L4,48 L4,49 L6,49 L6,50 L10,50 L10,51 L13,51 L13,52 L16,52 L16,53 L26,53 L26,55 L25,55 L25,54 L15,54 L15,53 L12,53 L12,52 L8,52 L8,51 L5,51 L5,50 L2,50 L2,49 L0,49 L0,48 L-3,48 L-3,47 L-4,47 L-4,48 L-7,48 L-7,47 L-11,47 L-11,46 L-13,46 L-13,45 L-15,45 L-15,44 L-17,44 L-17,43 L-13,43 L-13,44 L-12,44 L-12,45 L-10,45 L-10,46 L-5,46 L-5,18 L-4,18 L-4,11 L-3,11 L-3,7 L-2,7 L-2,3 L-1,3 L-1,1 L0,1 Z " fill="#3C6680" transform="translate(588,213)"/>
<path d="M0,0 L3,0 L3,1 L4,1 L4,3 L5,3 L5,5 L6,5 L6,6 L12,6 L12,7 L27,7 L27,8 L30,8 L30,9 L33,9 L33,10 L35,10 L35,11 L32,11 L32,10 L29,10 L29,9 L26,9 L26,8 L11,8 L11,7 L8,7 L8,8 L6,8 L6,9 L5,9 L5,13 L4,13 L4,15 L3,15 L3,18 L2,18 L2,20 L1,20 L1,23 L0,23 L0,36 L-1,36 L-1,44 L-2,44 L-2,45 L-3,45 L-3,46 L-4,46 L-4,44 L-3,44 L-3,39 L-2,39 L-2,25 L-1,25 L-1,22 L0,22 L0,19 L1,19 L1,16 L2,16 L2,14 L3,14 L3,11 L4,11 L4,4 L3,4 L3,2 L0,2 Z " fill="#345163" transform="translate(790,61)"/>
<path d="M0,0 L7,0 L7,1 L8,1 L8,2 L9,2 L9,3 L11,3 L11,4 L13,4 L13,5 L15,5 L15,6 L17,6 L17,7 L19,7 L19,8 L20,8 L20,9 L21,9 L21,11 L22,11 L22,12 L23,12 L23,13 L24,13 L24,14 L25,14 L25,15 L26,15 L26,17 L29,17 L29,18 L27,18 L27,19 L26,19 L26,26 L25,26 L25,34 L26,34 L26,37 L27,37 L27,41 L26,41 L26,40 L25,40 L25,36 L24,36 L24,31 L23,31 L23,27 L24,27 L24,15 L23,15 L23,14 L22,14 L22,13 L21,13 L21,12 L20,12 L20,10 L19,10 L19,9 L18,9 L18,8 L16,8 L16,7 L14,7 L14,6 L12,6 L12,5 L10,5 L10,4 L8,4 L8,3 L7,3 L7,2 L6,2 L6,1 L1,1 L1,2 L-1,2 L-1,3 L-3,3 L-3,4 L-4,4 L-4,5 L-5,5 L-5,6 L-6,6 L-6,7 L-7,7 L-7,8 L-8,8 L-8,9 L-9,9 L-9,10 L-11,10 L-11,9 L-10,9 L-10,8 L-9,8 L-9,7 L-8,7 L-8,6 L-7,6 L-7,5 L-6,5 L-6,4 L-5,4 L-5,3 L-4,3 L-4,2 L-2,2 L-2,1 L0,1 Z " fill="#3D6984" transform="translate(377,205)"/>
<path d="M0,0 L1,0 L1,8 L-42,8 L-42,32 L-44,32 L-44,31 L-46,31 L-46,30 L-48,30 L-48,29 L-51,29 L-51,28 L-53,28 L-53,27 L-55,27 L-55,26 L-56,26 L-56,25 L-57,25 L-57,24 L-55,24 L-55,25 L-52,25 L-52,26 L-51,26 L-51,27 L-49,27 L-49,28 L-47,28 L-47,29 L-44,29 L-44,30 L-43,30 L-43,7 L0,7 Z " fill="#365669" transform="translate(871,669)"/>
<path d="M0,0 L2,0 L2,1 L3,1 L3,2 L4,2 L4,3 L5,3 L5,4 L6,4 L6,6 L7,6 L7,9 L6,9 L6,18 L7,18 L7,21 L10,21 L10,22 L12,22 L12,23 L13,23 L13,24 L11,24 L11,23 L7,23 L7,22 L6,22 L6,20 L5,20 L5,16 L4,16 L4,9 L3,9 L3,10 L-1,10 L-1,11 L-5,11 L-5,12 L-8,12 L-8,13 L-12,13 L-12,14 L-17,14 L-17,13 L-14,13 L-14,12 L-11,12 L-11,11 L-7,11 L-7,10 L-3,10 L-3,9 L1,9 L1,8 L5,8 L5,5 L4,5 L4,4 L3,4 L3,3 L2,3 L2,2 L1,2 L1,1 L0,1 Z " fill="#3E6984" transform="translate(479,324)"/>
<path d="M0,0 L1,0 L1,1 L2,1 L2,2 L1,2 L1,3 L0,3 L0,4 L-1,4 L-1,5 L-2,5 L-2,6 L-3,6 L-3,8 L-4,8 L-4,9 L-6,9 L-6,10 L-9,10 L-9,11 L-12,11 L-12,12 L-14,12 L-14,13 L-18,13 L-18,14 L-19,14 L-19,15 L-20,15 L-20,17 L-21,17 L-21,21 L-22,21 L-22,22 L-24,22 L-24,23 L-27,23 L-27,25 L-26,25 L-26,26 L-25,26 L-25,28 L-26,28 L-26,27 L-27,27 L-27,26 L-28,26 L-28,25 L-31,25 L-31,26 L-42,26 L-42,25 L-32,25 L-32,24 L-30,24 L-30,22 L-25,22 L-25,21 L-23,21 L-23,20 L-22,20 L-22,16 L-21,16 L-21,14 L-20,14 L-20,13 L-19,13 L-19,12 L-18,12 L-18,11 L-13,11 L-13,10 L-10,10 L-10,9 L-8,9 L-8,8 L-5,8 L-5,7 L-4,7 L-4,5 L-3,5 L-3,4 L-2,4 L-2,3 L-1,3 L-1,2 L0,2 Z " fill="#3C6680" transform="translate(378,38)"/>
<path d="M0,0 L4,0 L4,1 L5,1 L5,2 L7,2 L7,3 L9,3 L9,4 L11,4 L11,5 L13,5 L13,6 L15,6 L15,7 L17,7 L17,8 L19,8 L19,9 L20,9 L20,10 L22,10 L22,11 L24,11 L24,12 L26,12 L26,13 L28,13 L28,14 L30,14 L30,15 L32,15 L32,17 L33,17 L33,18 L34,18 L34,19 L32,19 L32,18 L31,18 L31,17 L30,17 L30,16 L28,16 L28,15 L26,15 L26,14 L24,14 L24,13 L22,13 L22,12 L20,12 L20,11 L18,11 L18,10 L16,10 L16,9 L15,9 L15,8 L13,8 L13,7 L11,7 L11,6 L9,6 L9,5 L7,5 L7,4 L5,4 L5,3 L3,3 L3,2 L1,2 L1,1 L0,1 Z " fill="#2B3C47" transform="translate(544,550)"/>
<path d="M0,0 L1,0 L1,23 L3,23 L3,22 L5,22 L5,21 L7,21 L7,20 L10,20 L10,19 L14,19 L14,21 L9,21 L9,22 L6,22 L6,23 L4,23 L4,24 L2,24 L2,25 L0,25 L0,26 L-1,26 L-1,31 L-2,31 L-2,25 L-1,25 L-1,18 L0,18 Z " fill="#334D5E" transform="translate(197,229)"/>
<path d="M0,0 L2,0 L2,2 L0,2 L0,3 L-1,3 L-1,4 L-3,4 L-3,5 L-5,5 L-5,6 L-7,6 L-7,7 L-10,7 L-10,12 L-11,12 L-11,15 L-12,15 L-12,17 L-13,17 L-13,18 L-14,18 L-14,19 L-15,19 L-15,20 L-16,20 L-16,21 L-17,21 L-17,23 L-18,23 L-18,24 L-19,24 L-19,25 L-20,25 L-20,23 L-19,23 L-19,22 L-18,22 L-18,20 L-17,20 L-17,19 L-16,19 L-16,18 L-15,18 L-15,17 L-14,17 L-14,16 L-13,16 L-13,14 L-12,14 L-12,10 L-14,10 L-14,9 L-13,9 L-13,7 L-11,7 L-11,6 L-9,6 L-9,5 L-7,5 L-7,4 L-5,4 L-5,3 L-4,3 L-4,2 L-2,2 L-2,1 L0,1 Z " fill="#3D6883" transform="translate(687,42)"/>
<path d="M0,0 L9,0 L9,1 L11,1 L11,2 L12,2 L12,3 L14,3 L14,4 L16,4 L16,5 L17,5 L17,6 L18,6 L18,7 L19,7 L19,9 L20,9 L20,8 L21,8 L21,9 L23,9 L23,10 L24,10 L24,11 L25,11 L25,12 L31,12 L31,13 L33,13 L33,14 L38,14 L38,15 L30,15 L30,14 L26,14 L26,13 L24,13 L24,12 L23,12 L23,11 L22,11 L22,10 L18,10 L18,8 L17,8 L17,7 L16,7 L16,6 L14,6 L14,5 L13,5 L13,4 L11,4 L11,3 L9,3 L9,2 L8,2 L8,1 L0,1 Z " fill="#2C3D48" transform="translate(280,21)"/>
<path d="M0,0 L3,0 L3,1 L7,1 L7,2 L15,2 L15,4 L16,4 L16,5 L18,5 L18,6 L20,6 L20,7 L25,7 L25,8 L28,8 L28,9 L31,9 L31,10 L33,10 L33,11 L30,11 L30,10 L25,10 L25,9 L22,9 L22,8 L17,8 L17,6 L15,6 L15,5 L13,5 L13,4 L11,4 L11,3 L3,3 L3,2 L1,2 L1,1 L0,1 Z " fill="#263138" transform="translate(520,123)"/>
<path d="M0,0 L3,0 L3,1 L5,1 L5,2 L8,2 L8,3 L12,3 L12,4 L14,4 L14,5 L17,5 L17,6 L18,6 L18,8 L17,8 L17,13 L19,13 L19,14 L20,14 L20,15 L19,15 L19,16 L18,16 L18,21 L17,21 L17,22 L15,22 L15,18 L17,18 L17,14 L16,14 L16,6 L12,6 L12,5 L8,5 L8,4 L7,4 L7,3 L4,3 L4,2 L1,2 L1,1 L0,1 Z " fill="#262C31" transform="translate(773,39)"/>
<path d="M0,0 L4,0 L4,1 L5,1 L5,2 L7,2 L7,4 L10,4 L10,5 L12,5 L12,6 L14,6 L14,7 L16,7 L16,8 L18,8 L18,9 L20,9 L20,10 L22,10 L22,11 L24,11 L24,12 L26,12 L26,14 L27,14 L27,15 L25,15 L25,14 L24,14 L24,13 L22,13 L22,12 L20,12 L20,11 L18,11 L18,10 L16,10 L16,9 L14,9 L14,8 L12,8 L12,7 L10,7 L10,6 L8,6 L8,5 L6,5 L6,4 L5,4 L5,3 L3,3 L3,2 L1,2 L1,1 L0,1 Z " fill="#28343E" transform="translate(750,659)"/>
<path d="M0,0 L3,0 L3,7 L4,7 L4,9 L7,9 L7,10 L8,10 L8,11 L10,11 L10,13 L13,13 L13,12 L16,12 L16,11 L20,11 L20,12 L18,12 L18,13 L14,13 L14,14 L13,14 L13,15 L10,15 L10,14 L9,14 L9,13 L8,13 L8,12 L6,12 L6,11 L4,11 L4,10 L3,10 L3,8 L2,8 L2,7 L1,7 L1,1 L0,1 Z " fill="#262E35" transform="translate(212,447)"/>
<path d="M0,0 L1,0 L1,6 L0,6 L0,7 L-1,7 L-1,8 L-2,8 L-2,9 L-3,9 L-3,10 L-2,10 L-2,13 L-3,13 L-3,14 L-4,14 L-4,15 L-5,15 L-5,26 L-7,26 L-7,17 L-6,17 L-6,14 L-5,14 L-5,13 L-4,13 L-4,10 L-5,10 L-5,7 L-2,7 L-2,6 L-1,6 L-1,4 L0,4 Z " fill="#2C3C47" transform="translate(199,298)"/>
<path d="M0,0 L1,0 L1,2 L2,2 L2,6 L3,6 L3,8 L4,8 L4,15 L5,15 L5,17 L6,17 L6,18 L7,18 L7,23 L6,23 L6,26 L7,26 L7,29 L6,29 L6,27 L5,27 L5,22 L6,22 L6,19 L5,19 L5,18 L4,18 L4,17 L3,17 L3,16 L2,16 L2,7 L1,7 L1,3 L0,3 Z " fill="#21282C" transform="translate(193,324)"/>
<path d="M0,0 L4,0 L4,1 L6,1 L6,2 L7,2 L7,3 L9,3 L9,5 L12,5 L12,6 L14,6 L14,7 L16,7 L16,8 L18,8 L18,9 L20,9 L20,10 L22,10 L22,12 L20,12 L20,11 L18,11 L18,10 L16,10 L16,9 L14,9 L14,8 L12,8 L12,7 L10,7 L10,6 L8,6 L8,5 L7,5 L7,4 L5,4 L5,3 L3,3 L3,2 L2,2 L2,1 L0,1 Z " fill="#293741" transform="translate(522,538)"/>
<path d="M0,0 L2,0 L2,1 L5,1 L5,2 L8,2 L8,3 L10,3 L10,4 L12,4 L12,5 L15,5 L15,6 L16,6 L16,7 L18,7 L18,8 L20,8 L20,9 L22,9 L22,11 L20,11 L20,10 L18,10 L18,9 L16,9 L16,8 L14,8 L14,7 L12,7 L12,6 L11,6 L11,5 L8,5 L8,4 L6,4 L6,3 L4,3 L4,2 L1,2 L1,1 L0,1 Z " fill="#253038" transform="translate(578,569)"/>
<path d="M0,0 L3,0 L3,1 L4,1 L4,3 L5,3 L5,4 L7,4 L7,5 L8,5 L8,6 L29,6 L29,7 L7,7 L7,6 L6,6 L6,5 L3,5 L3,4 L2,4 L2,2 L1,2 L1,1 L0,1 Z " fill="#232323" transform="translate(825,72)"/>
<path d="M0,0 L4,0 L4,1 L5,1 L5,2 L7,2 L7,3 L9,3 L9,4 L11,4 L11,5 L13,5 L13,6 L15,6 L15,7 L18,7 L18,8 L20,8 L20,10 L18,10 L18,9 L16,9 L16,8 L14,8 L14,7 L11,7 L11,6 L9,6 L9,5 L7,5 L7,4 L5,4 L5,3 L3,3 L3,2 L1,2 L1,1 L0,1 Z " fill="#242F37" transform="translate(656,610)"/>
<path d="M0,0 L2,0 L2,2 L0,2 L0,3 L-1,3 L-1,4 L-3,4 L-3,5 L-5,5 L-5,6 L-7,6 L-7,7 L-9,7 L-9,8 L-12,8 L-12,9 L-13,9 L-13,11 L-14,11 L-14,10 L-15,10 L-15,9 L-14,9 L-14,8 L-13,8 L-13,7 L-11,7 L-11,6 L-9,6 L-9,5 L-7,5 L-7,4 L-5,4 L-5,3 L-4,3 L-4,2 L-2,2 L-2,1 L0,1 Z " fill="#2A3A43" transform="translate(186,168)"/>
<path d="M0,0 L4,0 L4,1 L5,1 L5,3 L6,3 L6,9 L7,9 L7,11 L8,11 L8,12 L9,12 L9,14 L8,14 L8,13 L6,13 L6,11 L5,11 L5,10 L4,10 L4,2 L3,2 L3,1 L0,1 Z " fill="#202B32" transform="translate(870,79)"/>
<path d="M0,0 L5,0 L5,2 L6,2 L6,4 L5,4 L5,3 L3,3 L3,2 L2,2 L2,3 L-14,3 L-14,2 L0,2 Z " fill="#2D3D48" transform="translate(743,28)"/>
<path d="M0,0 L2,0 L2,2 L0,2 L0,3 L-1,3 L-1,4 L-3,4 L-3,5 L-5,5 L-5,6 L-7,6 L-7,7 L-10,7 L-10,8 L-13,8 L-13,7 L-11,7 L-11,6 L-9,6 L-9,5 L-7,5 L-7,4 L-5,4 L-5,3 L-4,3 L-4,2 L-2,2 L-2,1 L0,1 Z " fill="#2A3944" transform="translate(687,42)"/>
<path d="M0,0 L1,0 L1,14 L2,14 L2,15 L3,15 L3,17 L4,17 L4,18 L5,18 L5,23 L4,23 L4,19 L3,19 L3,18 L2,18 L2,17 L1,17 L1,16 L0,16 Z " fill="#2B3C48" transform="translate(269,32)"/>
<path d="M0,0 L2,0 L2,1 L5,1 L5,2 L6,2 L6,3 L8,3 L8,4 L10,4 L10,5 L13,5 L13,6 L15,6 L15,8 L13,8 L13,7 L11,7 L11,6 L9,6 L9,5 L6,5 L6,4 L4,4 L4,3 L2,3 L2,2 L1,2 L1,1 L0,1 Z " fill="#242D35" transform="translate(814,693)"/>
<path d="M0,0 L1,0 L1,2 L0,2 L0,4 L-1,4 L-1,5 L-2,5 L-2,7 L-3,7 L-3,8 L-9,8 L-9,9 L-10,9 L-10,10 L-14,10 L-14,9 L-13,9 L-13,8 L-11,8 L-11,7 L-4,7 L-4,6 L-3,6 L-3,4 L-2,4 L-2,3 L-1,3 L-1,1 L0,1 Z " fill="#29353C" transform="translate(202,158)"/>
<path d="M0,0 L4,0 L4,1 L5,1 L5,2 L7,2 L7,3 L9,3 L9,4 L11,4 L11,6 L9,6 L9,5 L7,5 L7,4 L5,4 L5,3 L3,3 L3,2 L1,2 L1,1 L0,1 Z " fill="#29353F" transform="translate(600,580)"/>
<path d="M0,0 L2,0 L2,1 L1,1 L1,3 L0,3 L0,4 L-1,4 L-1,5 L-2,5 L-2,6 L-4,6 L-4,8 L-6,8 L-6,7 L-5,7 L-5,5 L-4,5 L-4,3 L-2,3 L-2,2 L-1,2 L-1,1 L0,1 Z " fill="#40718F" transform="translate(409,318)"/>
<path d="M0,0 L1,0 L1,2 L0,2 L0,3 L-1,3 L-1,4 L-2,4 L-2,5 L-3,5 L-3,7 L-4,7 L-4,8 L-8,8 L-8,7 L-7,7 L-7,6 L-5,6 L-5,5 L-4,5 L-4,4 L-3,4 L-3,3 L-2,3 L-2,2 L-1,2 L-1,1 L0,1 Z " fill="#273139" transform="translate(643,151)"/>
<path d="M0,0 L3,0 L3,1 L4,1 L4,3 L5,3 L5,4 L7,4 L7,5 L8,5 L8,7 L7,7 L7,6 L6,6 L6,5 L3,5 L3,4 L2,4 L2,2 L1,2 L1,1 L0,1 Z " fill="#27323A" transform="translate(825,72)"/>
<path d="M0,0 L3,0 L3,1 L4,1 L4,3 L5,3 L5,4 L10,4 L10,5 L4,5 L4,4 L3,4 L3,3 L2,3 L2,2 L0,2 Z " fill="#262D32" transform="translate(553,134)"/>
</svg>
